<svg xmlns="http://www.w3.org/2000/svg" width="78" height="24" viewBox="0 0 78 24">
  <g fill="#FEFEFE" fill-rule="evenodd">
    <path  d="M1.2,9.8h4.1v1.7H3.1v1.3h2.1v1.7H3.1v2.8H1.2V9.8z"/>
  	<path  d="M7.4,17.2H5.3l3-7.5h1.6l2.9,7.5h-2.1l-0.4-1.1H7.7L7.4,17.2z M9,12l-0.8,2.6h1.6L9,12z"/>
  	<path  d="M18.3,14.3l0-4.6H20v7.5h-1.7l-2.9-4.5l0,4.5h-1.8V9.8h1.6L18.3,14.3z"/>
  	<path  d="M29,14.4c-0.4,1.8-2,2.9-3.8,2.9c-2.3,0-3.9-1.9-3.9-3.9c0-1.9,1.5-3.9,3.9-3.9c2.3,0,3.6,1.8,3.8,3h-2
  		c-0.2-0.6-0.8-1.3-1.8-1.3c-1.3,0-2,1.1-2,2.2c0,1.1,0.8,2.2,2,2.2c1.2,0,1.7-1,1.8-1.3H29z"/>
  	<path  d="M31.9,14.5l-2.2-4.8h2.1l1.1,3l1.1-3H36l-2.2,4.8v2.7h-1.9V14.5z"/>
  	<path  d="M37,9.8h2.7c0.8,0,1.4,0.2,1.8,0.5c0.4,0.3,0.7,0.8,0.7,1.5c0,0.6-0.3,1.2-0.9,1.5c1.2,0.4,1.2,1.4,1.2,1.7
  		c0,0.6-0.2,1.3-0.7,1.6c-0.7,0.6-1.2,0.6-2.4,0.6H37V9.8z M38.9,12.6h0.7c0.1,0,0.3,0,0.5-0.1c0.2-0.1,0.3-0.2,0.3-0.5
  		c0-0.3-0.1-0.4-0.3-0.5c-0.2-0.1-0.4-0.1-0.5-0.1h-0.7V12.6z M38.9,15.6h0.9c0.1,0,0.4,0,0.6-0.1c0.2-0.1,0.4-0.3,0.4-0.6
  		c0-0.3-0.2-0.5-0.4-0.6c-0.2-0.1-0.4-0.1-0.6-0.1h-0.9V15.6z"/>
  	<path  d="M43.7,9.8h2.4c1.2,0,1.9,0.2,2.3,0.5c0.6,0.5,0.9,1.2,0.9,2c0,0.6-0.2,1-0.4,1.4c-0.3,0.4-0.6,0.6-1,0.8
  		l1.5,2.7h-2l-2-3.6H46c0.5,0,0.9,0,1.2-0.2c0.2-0.2,0.4-0.5,0.4-0.9c0-0.4-0.2-0.7-0.4-0.9c-0.2-0.1-0.5-0.2-0.8-0.2h-0.7v5.8h-1.9
  		V9.8z"/>
  	<path  d="M52,17.2H50l3-7.5h1.6l2.9,7.5h-2.1L55,16.2h-2.6L52,17.2z M53.6,12l-0.8,2.6h1.6L53.6,12z"/>
  	<path  d="M62.9,14.3l0-4.6h1.8v7.5h-1.7l-2.9-4.5l0,4.5h-1.8V9.8h1.6L62.9,14.3z"/>
  	<path  d="M66.3,9.8h2.5c0.8,0,2.3,0,3.3,1.4c0.5,0.7,0.7,1.5,0.7,2.3c0,2-1,3.8-3.8,3.8h-2.6V9.8z M68.2,15.6H69
  		c1.4,0,1.8-1,1.8-2.1c0-0.4-0.1-1-0.4-1.4c-0.2-0.3-0.6-0.7-1.5-0.7h-0.8V15.6z"/>
  </g>
</svg>
